<svg width="1071" height="713" viewBox="0 0 1071 713" fill="none" xmlns="http://www.w3.org/2000/svg">
<g filter="url(#filter0_d_45_6)">
<path d="M53 143.088C68.6667 104.921 110.9 33.2878 154.5 52.0878C198.1 70.8878 129.333 464.588 89.5 659.088C138.167 445.254 242.7 37.2878 271.5 116.088C300.3 194.888 229.833 510.921 191 659.088C244.5 457.754 358.3 67.2878 385.5 116.088C412.7 164.888 343.167 498.421 305 659.088C348.5 527.754 455.7 276.788 536.5 323.588C617.3 370.388 628.833 478.421 624.5 526.588C615.667 560.254 579.9 617.488 507.5 577.088C435.1 536.688 434.333 473.588 443 447.088C455 406.088 502.4 322.488 596 316.088C689.6 309.688 624.667 326.421 580.5 335.588C596 432.921 636.4 617.488 674 577.088C711.6 536.688 743.333 277.921 754.5 153.588L736.5 635.588L827.5 265.088L817 622.588C830.833 503.421 877.2 265.088 952 265.088C1026.8 265.088 1022.83 503.421 1011.5 622.588" stroke="white" stroke-width="10" shape-rendering="crispEdges"/>
</g>
<defs>
<filter id="filter0_d_45_6" x="0.774529" y="0.374245" width="1069.61" height="711.886" filterUnits="userSpaceOnUse" color-interpolation-filters="sRGB">
<feFlood flood-opacity="0" result="BackgroundImageFix"/>
<feColorMatrix in="SourceAlpha" type="matrix" values="0 0 0 0 0 0 0 0 0 0 0 0 0 0 0 0 0 0 127 0" result="hardAlpha"/>
<feOffset dy="4"/>
<feGaussianBlur stdDeviation="23.8"/>
<feComposite in2="hardAlpha" operator="out"/>
<feColorMatrix type="matrix" values="0 0 0 0 1 0 0 0 0 1 0 0 0 0 1 0 0 0 1 0"/>
<feBlend mode="normal" in2="BackgroundImageFix" result="effect1_dropShadow_45_6"/>
<feBlend mode="normal" in="SourceGraphic" in2="effect1_dropShadow_45_6" result="shape"/>
</filter>
</defs>
</svg>
